HIERARCHY
ROOT Root
{
  OFFSET 0.0 0.0 0.0
  CHANNELS 6 Xposition Yposition Zposition Zrotation Yrotation Xrotation
  JOINT Hips
  {
    OFFSET 0.0 100.0 0.0
    CHANNELS 6 Xposition Yposition Zposition Zrotation Yrotation Xrotation
    JOINT Spine1
    {
      OFFSET -0.013727 5.003763 -0.053727
      CHANNELS 3 Zrotation Yrotation Xrotation
      JOINT Spine2
      {
        OFFSET -0.0 7.125301 -0.029825
        CHANNELS 3 Zrotation Yrotation Xrotation
        JOINT Chest
        {
          OFFSET -1e-06 7.550063 -0.815971
          CHANNELS 3 Zrotation Yrotation Xrotation
          JOINT Neck1
          {
            OFFSET -0.181677 26.311295 -0.553348
            CHANNELS 3 Zrotation Yrotation Xrotation
            JOINT Neck2
            {
              OFFSET -3e-06 7.709397 2.302585
              CHANNELS 3 Zrotation Yrotation Xrotation
              JOINT Head
              {
                OFFSET -5e-06 6.128916 1.953709
                CHANNELS 3 Zrotation Yrotation Xrotation
                JOINT HeadEnd
                {
                  OFFSET 0.003598 16.065403 -1.835379
                  CHANNELS 3 Zrotation Yrotation Xrotation
                }
                JOINT Jaw
                {
                  OFFSET 0.002637 0.475592 3.094941
                  CHANNELS 3 Zrotation Yrotation Xrotation
                }
                JOINT LeftEye
                {
                  OFFSET 3.206381 5.380205 7.586883
                  CHANNELS 3 Zrotation Yrotation Xrotation
                }
                JOINT RightEye
                {
                  OFFSET -3.22244 5.361869 7.558234
                  CHANNELS 3 Zrotation Yrotation Xrotation
                }
              }
            }
          }
          JOINT LeftShoulder
          {
            OFFSET 1.621652 23.237164 5.113413
            CHANNELS 3 Zrotation Yrotation Xrotation
            JOINT LeftArm
            {
              OFFSET 14.919846 2e-06 -5.502326
              CHANNELS 3 Zrotation Yrotation Xrotation
              JOINT LeftForeArm
              {
                OFFSET 28.739307 0.0 -0.002588
                CHANNELS 3 Zrotation Yrotation Xrotation
                JOINT LeftHand
                {
                  OFFSET 27.093981 -1e-06 0.002609
                  CHANNELS 3 Zrotation Yrotation Xrotation
                  JOINT LeftHandThumb1
                  {
                    OFFSET 2.276482 -1.392045 3.191413
                    CHANNELS 3 Zrotation Yrotation Xrotation
                    JOINT LeftHandThumb2
                    {
                      OFFSET 4.012836 -1.828127 1.641654
                      CHANNELS 3 Zrotation Yrotation Xrotation
                      JOINT LeftHandThumb3
                      {
                        OFFSET 2.798515 0.0 -3e-06
                        CHANNELS 3 Zrotation Yrotation Xrotation
                        JOINT LeftHandThumbEnd
                        {
                          OFFSET 3.180793 -4e-06 4e-06
                          CHANNELS 3 Zrotation Yrotation Xrotation
                        }
                      }
                    }
                  }
                  JOINT LeftHandIndex1
                  {
                    OFFSET 3.247555 -0.531998 2.296169
                    CHANNELS 3 Zrotation Yrotation Xrotation
                    JOINT LeftHandIndex2
                    {
                      OFFSET 6.364578 0.01206 0.1786
                      CHANNELS 3 Zrotation Yrotation Xrotation
                      JOINT LeftHandIndex3
                      {
                        OFFSET 3.662364 0.0 0.0
                        CHANNELS 3 Zrotation Yrotation Xrotation
                        JOINT LeftHandIndex4
                        {
                          OFFSET 2.329242 4e-06 4e-06
                          CHANNELS 3 Zrotation Yrotation Xrotation
                          JOINT LeftHandIndexEnd
                          {
                            OFFSET 2.759615 -0.180537 -0.113024
                            CHANNELS 3 Zrotation Yrotation Xrotation
                          }
                        }
                      }
                    }
                  }
                  JOINT LeftHandMiddle1
                  {
                    OFFSET 3.163495 0.240981 1.000332
                    CHANNELS 3 Zrotation Yrotation Xrotation
                    JOINT LeftHandMiddle2
                    {
                      OFFSET 6.19078 -0.259278 -1.002548
                      CHANNELS 3 Zrotation Yrotation Xrotation
                      JOINT LeftHandMiddle3
                      {
                        OFFSET 4.35652 -4e-06 -1e-06
                        CHANNELS 3 Zrotation Yrotation Xrotation
                        JOINT LeftHandMiddle4
                        {
                          OFFSET 2.996877 -8e-06 0.0
                          CHANNELS 3 Zrotation Yrotation Xrotation
                          JOINT LeftHandMiddleEnd
                          {
                            OFFSET 2.304287 -0.294569 -0.031741
                            CHANNELS 3 Zrotation Yrotation Xrotation
                          }
                        }
                      }
                    }
                  }
                  JOINT LeftHandRing1
                  {
                    OFFSET 2.882643 -0.053652 -0.322543
                    CHANNELS 3 Zrotation Yrotation Xrotation
                    JOINT LeftHandRing2
                    {
                      OFFSET 5.854541 -0.486202 -1.373841
                      CHANNELS 3 Zrotation Yrotation Xrotation
                      JOINT LeftHandRing3
                      {
                        OFFSET 4.350578 0.0 3e-06
                        CHANNELS 3 Zrotation Yrotation Xrotation
                        JOINT LeftHandRing4
                        {
                          OFFSET 2.651321 7e-06 2e-06
                          CHANNELS 3 Zrotation Yrotation Xrotation
                          JOINT LeftHandRingEnd
                          {
                            OFFSET 1.936105 0.077687 -7.1e-05
                            CHANNELS 3 Zrotation Yrotation Xrotation
                          }
                        }
                      }
                    }
                  }
                  JOINT LeftHandPinky1
                  {
                    OFFSET 2.8655 -0.310005 -1.600378
                    CHANNELS 3 Zrotation Yrotation Xrotation
                    JOINT LeftHandPinky2
                    {
                      OFFSET 5.087849 -1.331141 -1.77123
                      CHANNELS 3 Zrotation Yrotation Xrotation
                      JOINT LeftHandPinky3
                      {
                        OFFSET 3.070974 4e-06 0.0
                        CHANNELS 3 Zrotation Yrotation Xrotation
                        JOINT LeftHandPinky4
                        {
                          OFFSET 1.549672 0.0 1e-06
                          CHANNELS 3 Zrotation Yrotation Xrotation
                          JOINT LeftHandPinkyEnd
                          {
                            OFFSET 1.944893 -0.157802 0.057219
                            CHANNELS 3 Zrotation Yrotation Xrotation
                          }
                        }
                      }
                    }
                  }
                }
              }
            }
          }
          JOINT RightShoulder
          {
            OFFSET -1.380118 23.180309 5.214158
            CHANNELS 3 Zrotation Yrotation Xrotation
            JOINT RightArm
            {
              OFFSET -15.037196 1.2e-05 -5.545604
              CHANNELS 3 Zrotation Yrotation Xrotation
              JOINT RightForeArm
              {
                OFFSET -28.736639 2e-06 -0.002597
                CHANNELS 3 Zrotation Yrotation Xrotation
                JOINT RightHand
                {
                  OFFSET -27.133619 -0.0 0.002613
                  CHANNELS 3 Zrotation Yrotation Xrotation
                  JOINT RightHandThumb1
                  {
                    OFFSET -2.274032 -1.383988 3.163127
                    CHANNELS 3 Zrotation Yrotation Xrotation
                    JOINT RightHandThumb2
                    {
                      OFFSET -4.011429 -1.827466 1.640914
                      CHANNELS 3 Zrotation Yrotation Xrotation
                      JOINT RightHandThumb3
                      {
                        OFFSET -2.794935 -4e-06 -3e-06
                        CHANNELS 3 Zrotation Yrotation Xrotation
                        JOINT RightHandThumbEnd
                        {
                          OFFSET -3.183852 4e-06 1e-06
                          CHANNELS 3 Zrotation Yrotation Xrotation
                        }
                      }
                    }
                  }
                  JOINT RightHandIndex1
                  {
                    OFFSET -3.253266 -0.520057 2.282866
                    CHANNELS 3 Zrotation Yrotation Xrotation
                    JOINT RightHandIndex2
                    {
                      OFFSET -6.341917 0.012471 0.178266
                      CHANNELS 3 Zrotation Yrotation Xrotation
                      JOINT RightHandIndex3
                      {
                        OFFSET -3.654871 -8e-06 -0.0
                        CHANNELS 3 Zrotation Yrotation Xrotation
                        JOINT RightHandIndex4
                        {
                          OFFSET -2.327586 0.0 1e-06
                          CHANNELS 3 Zrotation Yrotation Xrotation
                          JOINT RightHandIndexEnd
                          {
                            OFFSET -2.76179 -0.180656 -0.113078
                            CHANNELS 3 Zrotation Yrotation Xrotation
                          }
                        }
                      }
                    }
                  }
                  JOINT RightHandMiddle1
                  {
                    OFFSET -3.168106 0.246593 1.00103
                    CHANNELS 3 Zrotation Yrotation Xrotation
                    JOINT RightHandMiddle2
                    {
                      OFFSET -6.180828 -0.258836 -1.000895
                      CHANNELS 3 Zrotation Yrotation Xrotation
                      JOINT RightHandMiddle3
                      {
                        OFFSET -4.348901 0.0 -0.0
                        CHANNELS 3 Zrotation Yrotation Xrotation
                        JOINT RightHandMiddle4
                        {
                          OFFSET -3.00024 -4e-06 -2e-06
                          CHANNELS 3 Zrotation Yrotation Xrotation
                          JOINT RightHandMiddleEnd
                          {
                            OFFSET -2.30252 -0.29437 -0.031706
                            CHANNELS 3 Zrotation Yrotation Xrotation
                          }
                        }
                      }
                    }
                  }
                  JOINT RightHandRing1
                  {
                    OFFSET -2.88569 -0.067952 -0.308858
                    CHANNELS 3 Zrotation Yrotation Xrotation
                    JOINT RightHandRing2
                    {
                      OFFSET -5.854198 -0.48613 -1.373731
                      CHANNELS 3 Zrotation Yrotation Xrotation
                      JOINT RightHandRing3
                      {
                        OFFSET -4.33881 -4e-06 -0.0
                        CHANNELS 3 Zrotation Yrotation Xrotation
                        JOINT RightHandRing4
                        {
                          OFFSET -2.654903 -4e-06 4e-06
                          CHANNELS 3 Zrotation Yrotation Xrotation
                          JOINT RightHandRingEnd
                          {
                            OFFSET -1.933568 0.077527 -5.2e-05
                            CHANNELS 3 Zrotation Yrotation Xrotation
                          }
                        }
                      }
                    }
                  }
                  JOINT RightHandPinky1
                  {
                    OFFSET -2.866425 -0.342796 -1.584145
                    CHANNELS 3 Zrotation Yrotation Xrotation
                    JOINT RightHandPinky2
                    {
                      OFFSET -5.091371 -1.332055 -1.772385
                      CHANNELS 3 Zrotation Yrotation Xrotation
                      JOINT RightHandPinky3
                      {
                        OFFSET -3.062664 -4e-06 1e-06
                        CHANNELS 3 Zrotation Yrotation Xrotation
                        JOINT RightHandPinky4
                        {
                          OFFSET -1.546529 4e-06 -2e-06
                          CHANNELS 3 Zrotation Yrotation Xrotation
                          JOINT RightHandPinkyEnd
                          {
                            OFFSET -1.945119 -0.157718 0.057211
                            CHANNELS 3 Zrotation Yrotation Xrotation
                          }
                        }
                      }
                    }
                  }
                }
              }
            }
          }
        }
      }
    }
    JOINT LeftLeg
    {
      OFFSET 10.043214 -8.434526 2.595655
      CHANNELS 3 Zrotation Yrotation Xrotation
      JOINT LeftShin
      {
        OFFSET -1e-06 -43.221752 -0.802913
        CHANNELS 3 Zrotation Yrotation Xrotation
        JOINT LeftFoot
        {
          OFFSET 1e-06 -42.155094 -3.481523
          CHANNELS 3 Zrotation Yrotation Xrotation
          JOINT LeftToeBase
          {
            OFFSET 0.0 -5.059472 13.231529
            CHANNELS 3 Zrotation Yrotation Xrotation
            JOINT LeftToeEnd
            {
              OFFSET -0.009607 -1.647619 6.513017
              CHANNELS 3 Zrotation Yrotation Xrotation
            }
          }
        }
      }
    }
    JOINT RightLeg
    {
      OFFSET -10.047278 -8.29526 2.620317
      CHANNELS 3 Zrotation Yrotation Xrotation
      JOINT RightShin
      {
        OFFSET 1e-06 -43.362206 -0.805556
        CHANNELS 3 Zrotation Yrotation Xrotation
        JOINT RightFoot
        {
          OFFSET 2e-06 -42.117393 -3.478398
          CHANNELS 3 Zrotation Yrotation Xrotation
          JOINT RightToeBase
          {
            OFFSET -0.0 -5.079609 13.284196
            CHANNELS 3 Zrotation Yrotation Xrotation
            JOINT RightToeEnd
            {
              OFFSET 0.009532 -1.634378 6.460591
              CHANNELS 3 Zrotation Yrotation Xrotation
            }
          }
        }
      }
    }
  }
}
MOTION
Frames: 4
Frame Time: 0.03333333333333333
0.0 0.0 0.0 0.0 -0.0 0.0 -1.994374 100.581345 1.445269 0.820096 -0.310919 2.739536 0.862918 0.284876 -4.881948 -0.306696 0.789805 -6.253999 -0.133802 -0.410421 14.520411 2.651181 1.764725 1.027128 -0.308483 1.467813 -3.473567 -2.518337 1.923883 -3.189978 7.7e-05 -2.3e-05 6e-06 0.012008 -0.130011 0.029321 0.799603 -3.845143 -10.609698 -0.776332 3.602479 -10.569135 -20.598804 -5.234147 14.525174 -45.221443 -0.776648 28.310228 1.137719 -46.249935 -0.251187 0.950329 12.605475 -18.858784 -5.882111 9.861291 0.702591 -10.936878 -0.360574 7.156211 0.0 8.77483 -1e-06 -16.821955 18.089838 5.7764 -1.844033 2.498506 -2.507279 -10.163605 4.678948 4.621111 -20.976038 -2e-06 0.0 -21.226301 2.451699 -3.594004 1e-06 -6e-06 -1e-06 -1.362683 2.240799 -0.746324 -21.334929 0.584911 3.008322 -13.821223 -2e-06 2e-06 -23.887186 -0.24908 -0.839486 -60.445274 2.516685 -1.256582 -0.294025 1.679688 0.833255 -14.218218 0.093217 1.300581 -34.21207 -0.287563 0.967167 -20.033226 0.964537 1.212842 -0.0 -1e-06 -1e-06 -3.440391 0.788234 0.501657 -15.928196 -3.167309 2.999709 -6.338832 -1e-06 2e-06 -18.123461 3.648185 -4.905674 -3e-06 1e-06 -1e-06 31.801823 10.728971 17.585146 39.333706 -3.642117 18.37043 -0.17935 46.65303 0.348658 -16.333941 -6.077139 7.847101 2.243542 -5.255038 -3.180159 14.282903 -0.826595 6.95251 -3e-06 -12.69061 0.0 16.283396 -17.868292 2.748995 1.665669 -1.955923 -2.878302 4.727803 -4.170588 4.993928 11.020535 3e-06 -0.0 12.109059 -3.735717 -2.866785 0.0 0.0 -0.0 1.291985 -1.92855 -1.498091 14.80014 0.56747 3.865612 14.242582 -1.341734 -6.660661 19.631985 0.143927 -0.648242 50.603374 -0.488053 -6.144807 0.35303 -1.51115 -0.031939 20.222807 3.684313 2.316634 18.787289 5e-06 3e-06 10.751637 -0.479868 1.397908 0.0 0.0 -1e-06 3.27381 0.305947 -0.580113 21.486834 11.83038 2.266135 8.162935 3e-06 -3e-06 18.399099 -3.798986 -4.940575 2e-06 -1e-06 -1e-06 2.606978 17.98572 -2.200436 0.015942 0.002755 1.690387 -2.969769 8.524172 -0.819606 1.614617 -1.915604 -0.287409 0.0 0.0 2e-06 -7.084166 -18.318668 -4.140931 0.034254 -0.194588 1.698935 10.789522 5.150148 2.182798 -1.435829 0.848545 -0.721852 0.0 -0.0 -1e-06 
0.0 0.0 0.0 0.0 -0.0 0.0 -1.704995 100.556305 1.523418 1.207416 -0.189003 2.612206 0.78498 0.270501 -4.731232 -0.284039 0.825092 -6.213592 -0.010113 -0.473576 14.500533 2.476053 1.864378 1.504908 -0.327032 1.325652 -3.497902 -2.770915 1.855043 -3.44826 7.7e-05 -2.3e-05 6e-06 0.01212 -0.126717 0.020077 0.777845 -3.844605 -10.608518 -0.753785 3.607169 -10.571924 -20.611311 -5.083 14.607485 -44.865616 -0.280644 28.13308 0.911102 -48.025932 -0.163702 0.535028 12.52715 -18.040968 -5.882106 9.861285 0.70259 -10.936871 -0.360575 7.156205 0.0 8.774824 -2e-06 -16.780516 17.949612 5.754175 -1.844032 2.498505 -2.507278 -10.1636 4.678945 4.62111 -20.976023 -3e-06 4e-06 -21.226286 2.451698 -3.593999 1e-06 -6e-06 -1e-06 -1.362681 2.240798 -0.746325 -21.334913 0.58491 3.008322 -13.821213 -2e-06 3e-06 -23.887169 -0.249078 -0.839484 -60.45697 2.474264 -1.176224 -0.294024 1.679687 0.833256 -14.218208 0.093215 1.30058 -34.212048 -0.287562 0.967172 -20.033211 0.964539 1.212843 -0.0 -0.0 -1e-06 -3.440388 0.788233 0.501657 -15.928185 -3.167308 2.999707 -6.338825 -1e-06 1e-06 -18.123444 3.648185 -4.90567 -3e-06 0.0 -1e-06 31.619211 10.610476 17.564054 39.29681 -4.045747 17.938862 -0.184359 48.409359 0.313834 -16.469873 -6.02709 8.112445 2.243542 -5.255038 -3.180159 14.282896 -0.826598 6.952504 0.0 -12.690609 -1e-06 16.340841 -17.860527 2.759904 1.665668 -1.955922 -2.878298 4.727801 -4.170589 4.993925 11.020528 -0.0 -1e-06 12.109056 -3.735719 -2.866785 -0.0 0.0 -1e-06 1.291986 -1.928552 -1.498092 14.800131 0.567466 3.865611 14.242573 -1.34174 -6.66066 19.631969 0.143922 -0.648245 50.785805 -0.521677 -6.103518 0.353028 -1.51115 -0.031939 20.222797 3.684307 2.316632 18.787279 1e-06 0.0 10.751631 -0.47987 1.397908 0.0 1e-06 1e-06 3.273808 0.305946 -0.580111 21.486818 11.830376 2.266136 8.16293 1e-06 -2e-06 18.399088 -3.798989 -4.940578 2e-06 -0.0 -0.0 1.893858 17.490849 -1.984929 0.000898 -0.082162 1.705362 -2.777154 8.782827 -0.891648 1.620805 -1.919502 -0.439665 0.0 0.0 2e-06 -7.943964 -18.159769 -4.02851 0.027141 -0.194445 2.092356 11.061963 4.95101 1.909235 -1.441829 0.844104 -0.896593 0.0 -0.0 -1e-06 
0.0 0.0 0.0 0.0 -0.0 0.0 -0.938711 100.473175 1.78066 1.859455 0.004865 2.326232 0.593703 0.257077 -4.519406 -0.281751 0.826247 -6.163028 0.178454 -0.496974 14.5577 2.163023 2.011789 2.100506 -0.34581 1.140219 -3.552701 -3.11428 1.747087 -3.703702 7.7e-05 -2.3e-05 6e-06 0.017538 -0.112907 0.020054 0.753838 -3.834492 -10.610774 -0.718765 3.622787 -10.577935 -20.645967 -4.945024 14.777835 -44.415932 0.173591 28.207525 0.891282 -50.261505 -0.150787 -0.280597 12.63512 -16.666462 -5.88211 9.861289 0.70259 -10.936877 -0.360573 7.156211 0.0 8.774828 1e-06 -16.755022 17.963436 5.770352 -1.844033 2.498506 -2.507278 -10.163605 4.678948 4.621111 -20.976038 -1e-06 3e-06 -21.226301 2.4517 -3.594002 1e-06 -6e-06 0.0 -1.362683 2.240799 -0.746324 -21.334927 0.584912 3.008323 -13.821221 -2e-06 1e-06 -23.887182 -0.249076 -0.839483 -60.5326 2.510136 -1.197715 -0.294025 1.679688 0.833256 -14.218217 0.093217 1.300581 -34.21207 -0.287561 0.967169 -20.033226 0.964538 1.212843 -1e-06 -2e-06 -0.0 -3.44039 0.788234 0.501656 -15.928194 -3.167309 2.999709 -6.33883 -1e-06 0.0 -18.123459 3.648185 -4.905672 -3e-06 0.0 -3e-06 31.48011 10.48476 17.626123 39.021763 -4.545678 17.416803 -0.22556 50.88908 0.216893 -16.72736 -5.917076 8.3387 2.243541 -5.255037 -3.180159 14.28289 -0.826595 6.952506 -4e-06 -12.690608 3e-06 16.348547 -17.883707 2.76944 1.665665 -1.955922 -2.878298 4.727798 -4.170588 4.993928 11.020524 3e-06 -2e-06 12.109052 -3.735717 -2.866784 0.0 0.0 -1e-06 1.291984 -1.928549 -1.498088 14.800129 0.567469 3.865609 14.242572 -1.341735 -6.660656 19.631968 0.143928 -0.648246 50.791874 -0.543333 -6.106136 0.353028 -1.511149 -0.031941 20.222794 3.68431 2.316631 18.787271 4e-06 2e-06 10.751629 -0.479869 1.397907 -0.0 1e-06 -0.0 3.273808 0.305947 -0.580111 21.486818 11.830378 2.266131 8.162927 3e-06 -2e-06 18.39908 -3.798986 -4.940575 3e-06 -0.0 -0.0 0.799752 16.739487 -1.596631 -0.004765 -0.140684 1.819696 -2.251975 9.184478 -1.200928 1.634369 -1.935666 -0.471254 0.0 -1e-06 2e-06 -9.320377 -17.746149 -4.084823 0.024682 -0.19146 3.352872 11.433906 4.53161 1.049828 -1.444754 0.838215 -0.942608 0.0 -0.0 -1e-06 
0.0 0.0 0.0 0.0 -0.0 0.0 -0.067597 100.273727 1.968502 2.817184 0.065704 1.890009 0.165942 0.263816 -4.235395 -0.312297 0.796631 -6.097899 0.399798 -0.441789 14.669076 1.744749 2.23538 2.780702 -0.356298 1.109008 -3.5841 -3.461787 1.693924 -4.0956 7.7e-05 -2.3e-05 6e-06 0.023403 -0.110769 0.027772 0.738029 -3.834341 -10.608707 -0.691605 3.625616 -10.581921 -20.592697 -4.655295 14.841858 -43.984001 0.492842 28.519812 1.028513 -52.586487 -0.169818 -1.125374 12.887356 -14.879253 -5.882108 9.861287 0.70259 -10.936874 -0.360575 7.156204 0.0 8.774827 -1e-06 -16.689384 18.026056 5.829886 -1.844033 2.498504 -2.507277 -10.163603 4.678946 4.621109 -20.97603 -3e-06 1e-06 -21.226292 2.451699 -3.594 2e-06 -6e-06 -1e-06 -1.362683 2.240799 -0.746323 -21.334919 0.584909 3.008322 -13.821217 -2e-06 -0.0 -23.887175 -0.249078 -0.839485 -60.599064 2.554065 -1.226604 -0.294025 1.679688 0.833254 -14.218214 0.093216 1.300581 -34.212059 -0.287563 0.967168 -20.033218 0.964537 1.21284 -1e-06 -1e-06 0.0 -3.440389 0.788234 0.501654 -15.928191 -3.16731 2.999707 -6.338828 -1e-06 -0.0 -18.123457 3.648184 -4.905674 -2e-06 0.0 -1e-06 31.425407 10.401886 17.740946 38.567154 -4.953369 16.868633 -0.425736 53.840378 0.026608 -17.081964 -5.521366 8.90225 2.243542 -5.255037 -3.180156 14.282892 -0.826596 6.952499 -1e-06 -12.690603 0.0 16.273882 -17.937004 2.801651 1.665665 -1.955921 -2.878299 4.7278 -4.170588 4.993925 11.020525 2e-06 -1e-06 12.109053 -3.735718 -2.866783 0.0 0.0 -0.0 1.291986 -1.928551 -1.498088 14.800129 0.567466 3.865608 14.242574 -1.341738 -6.660655 19.631969 0.143923 -0.648247 50.713192 -0.563897 -6.10214 0.35303 -1.511149 -0.031941 20.222794 3.684307 2.316629 18.787273 3e-06 -2e-06 10.751629 -0.479869 1.397906 -0.0 1e-06 0.0 3.273807 0.305948 -0.580109 21.486813 11.830372 2.266132 8.162928 1e-06 -2e-06 18.399086 -3.798985 -4.940577 3e-06 -0.0 -0.0 -0.654811 15.96751 -1.016068 -0.00154 -0.14954 1.951614 -1.661068 9.736045 -1.747494 1.648007 -1.96032 -0.454115 0.0 -1e-06 2e-06 -11.140308 -16.90979 -5.098113 6e-05 -0.173763 6.815738 11.827898 4.076112 -0.865675 -1.445805 0.824823 -0.922334 0.0 -0.0 -1e-06 
